<?xml version="1.0" encoding="utf-8"?>
<!-- Generator: Adobe Illustrator 16.0.0, SVG Export Plug-In . SVG Version: 6.00 Build 0)  -->
<!DOCTYPE svg PUBLIC "-//W3C//DTD SVG 1.1//EN" "http://www.w3.org/Graphics/SVG/1.1/DTD/svg11.dtd">
<svg version="1.1" id="Layer_1" xmlns="http://www.w3.org/2000/svg" xmlns:xlink="http://www.w3.org/1999/xlink" x="0px" y="0px"
	 width="632.7px" height="258.1px" viewBox="0 0 632.7 258.1" enable-background="new 0 0 632.7 258.1" xml:space="preserve">
<g>
	<path d="M202.368,173.615c-6.192,4.811-14.707,7.41-26.097,7.41c-12.772,0-26.263-3.982-35.939-13.105l10.339-16.42
		c6.911,5.859,18.301,10.338,25.212,10.338c6.911,0,11.722-1.713,11.722-7.242s-12.44-8.295-15.537-9.344
		c-3.262-0.885-8.127-2.268-12.108-3.982c-3.981-1.713-14.486-7.076-14.486-22.282c0-16.587,14.486-26.761,32.29-26.761
		c17.804,0,27.812,6.58,32.622,10.561l-8.901,16.255c-4.81-3.814-14.486-8.293-21.397-8.293c-6.58,0-10.173,1.714-10.173,6.193
		c0,4.478,6.579,6.58,12.44,8.293c5.86,1.714,8.458,2.599,12.109,3.981c3.814,1.383,8.127,3.648,11.058,6.414
		c2.765,2.764,6.911,8.293,6.911,17.25C212.375,161.671,208.562,168.583,202.368,173.615z"/>
	<path d="M276.126,115.061h-18.854v30.577c0,7.242,1.05,8.957,2.433,10.561c1.216,1.381,2.93,2.045,6.579,2.045
		c4.313,0,8.293-1.547,8.293-1.547l1.382,21.617c-2.045,0.498-9.676,2.766-19.684,2.766c-9.841,0-16.42-2.932-20.734-7.963
		c-4.312-5.031-6.027-12.107-6.027-25.047v-33.008h-12.108v-20.9h12.108V70.995h27.757v23.167h18.854V115.061z"/>
	<path d="M365.752,179.144h-26.595l-0.167-9.676c-3.648,5.197-12.605,11.557-24.88,11.557c-12.274,0-20.015-4.314-24.383-10.01
		c-4.147-5.859-6.192-13.324-6.192-25.543V93.996h27.646v47.662c0,9.842,2.765,16.586,12.605,16.586
		c9.843,0,14.321-7.795,14.321-19.02V93.941h27.646V179.144L365.752,179.144z"/>
	<path d="M432.765,79.122c0,0-5.364-1.548-10.174-1.548c-8.128,0-10.174,4.645-10.174,11.058v5.529h18.302v20.9h-18.302v64.083
		h-27.812v-64.083h-10.892v-20.9h10.892v-4.644c0-9.51,1.881-17.804,6.911-23.001c5.032-5.363,13.104-8.791,23.831-8.791
		c10.893,0,18.854,2.267,18.854,2.267L432.765,79.122z"/>
	<path d="M488.774,79.122c0,0-5.363-1.548-10.174-1.548c-8.127,0-10.173,4.645-10.173,11.058v5.529h18.301v20.9h-18.301v64.083
		h-27.812v-64.083h-10.892v-20.9h10.892v-4.644c0-9.51,1.881-17.804,6.912-23.001c5.031-5.363,13.103-8.791,23.829-8.791
		c10.894,0,18.854,2.267,18.854,2.267L488.774,79.122z"/>
</g>
<linearGradient id="SVGID_1_" gradientUnits="userSpaceOnUse" x1="561.27" y1="462.2122" x2="906.1177" y2="462.2122" gradientTransform="matrix(1 0 0 1 -419.5 -264.7959)">
	<stop  offset="0.138" style="stop-color:#FF4E00"/>
	<stop  offset="0.1411" style="stop-color:#FF5100"/>
	<stop  offset="0.1853" style="stop-color:#FE8000"/>
	<stop  offset="0.2275" style="stop-color:#FDA400"/>
	<stop  offset="0.2669" style="stop-color:#FCBE00"/>
	<stop  offset="0.3022" style="stop-color:#FCCD00"/>
	<stop  offset="0.33" style="stop-color:#FCD300"/>
	<stop  offset="0.346" style="stop-color:#EDD207"/>
	<stop  offset="0.3765" style="stop-color:#C7D01B"/>
	<stop  offset="0.4184" style="stop-color:#8ACD3A"/>
	<stop  offset="0.4695" style="stop-color:#36C865"/>
	<stop  offset="0.5" style="stop-color:#00C580"/>
	<stop  offset="0.67" style="stop-color:#00A2FC"/>
	<stop  offset="0.7044" style="stop-color:#0F95F9"/>
	<stop  offset="0.7709" style="stop-color:#3771F2"/>
	<stop  offset="0.862" style="stop-color:#7739E6"/>
	<stop  offset="0.8754" style="stop-color:#8130E4"/>
</linearGradient>
<rect x="141.77" y="194.458" fill="url(#SVGID_1_)" width="344.848" height="5.916"/>
</svg>
